<svg id="Layer_1" data-name="Layer 1" xmlns="http://www.w3.org/2000/svg" viewBox="0 0 524.95 145.36"><defs><style>.cls-1{font-size:21.04px;font-family:RobotoSlab-Regular, Roboto Slab;}.cls-1,.cls-4{fill:#231f20;}.cls-2{letter-spacing:-0.01em;}.cls-3{letter-spacing:0em;}.cls-4{font-size:6px;font-family:RobotoSlab-Light, Roboto Slab;font-weight:300;}.cls-5{letter-spacing:0em;}.cls-6{letter-spacing:-0.01em;}.cls-7{letter-spacing:-0.01em;}.cls-17,.cls-19,.cls-22,.cls-8{fill:#f3b456;stroke-width:0.25px;}.cls-10,.cls-11,.cls-12,.cls-13,.cls-14,.cls-15,.cls-16,.cls-17,.cls-18,.cls-19,.cls-20,.cls-22,.cls-24,.cls-25,.cls-26,.cls-27,.cls-29,.cls-30,.cls-31,.cls-8,.cls-9{stroke:#231f20;stroke-miterlimit:10;}.cls-8{opacity:0.47;}.cls-16,.cls-26,.cls-27,.cls-9{fill:#afdfdf;}.cls-10,.cls-11,.cls-12,.cls-13,.cls-14,.cls-15,.cls-16,.cls-18,.cls-24,.cls-25,.cls-26,.cls-27,.cls-29,.cls-30,.cls-31,.cls-9{stroke-width:0.5px;}.cls-9{opacity:0.51;}.cls-10,.cls-13{fill:#946bae;}.cls-10{opacity:0.46;}.cls-11,.cls-18,.cls-28{fill:#e8c5de;}.cls-12,.cls-14,.cls-25,.cls-29{fill:#f4abab;}.cls-12{opacity:0.61;}.cls-13,.cls-24{opacity:0.57;}.cls-14{opacity:0.35;}.cls-15{fill:#a24399;opacity:0.34;}.cls-16{opacity:0.4;}.cls-17{opacity:0.3;}.cls-18{opacity:0.77;}.cls-19{opacity:0.26;}.cls-20{fill:#dca9ce;stroke-width:0.75px;opacity:0.91;}.cls-21{fill:#b188be;opacity:0.8;}.cls-22{opacity:0.62;}.cls-23{fill:#7cd1e6;opacity:0.43;}.cls-24{fill:#b56ead;}.cls-26{opacity:0.29;}.cls-27{opacity:0.6;}.cls-28{opacity:0.38;}.cls-29{opacity:0.11;}.cls-30{fill:#e5c9e1;}.cls-31{fill:none;}</style></defs><title>Bubbles</title><text class="cls-1" transform="translate(76.31 70.73)">Nick Pi<tspan class="cls-2" x="72.57" y="0">r</tspan><tspan class="cls-3" x="81.07" y="0">es</tspan></text><text class="cls-4" transform="translate(85.58 81.71)">Gra<tspan class="cls-5" x="9.88" y="0">p</tspan><tspan x="13.36" y="0">hic Desig</tspan><tspan class="cls-6" x="39.26" y="0">n</tspan><tspan x="43.09" y="0">er • Illustra</tspan><tspan class="cls-7" x="73.5" y="0">t</tspan><tspan x="75.58" y="0">or</tspan></text><circle class="cls-8" cx="210.42" cy="32.45" r="16.95"/><path class="cls-9" d="M252.68,83.83c0-2.23.38-4.45.41-6.68,0-.22,0-.43,0-.65-.49-7-.28-13.94-.25-21,0-.07,0-.13,0-.2s0-.14,0-.2V43.36a7.72,7.72,0,0,1,.19-1.68c-.07-4.9.19-9.8.22-14.71-.37-4.51-.41-9-.41-13.55a7.73,7.73,0,0,1,.05-.84,37.54,37.54,0,0,0-5.85-.47,36.62,36.62,0,1,0,5.68,72.78A7.45,7.45,0,0,1,252.68,83.83Z" transform="translate(0.25 0.68)"/><path class="cls-10" d="M18.47.33C12.45.2,6.42-.19.39-.1V16.79a5,5,0,0,1,0,1.28c0,.06,0,.12,0,.18a9.85,9.85,0,0,1-.12,1.12C-.26,24.66.15,30,.19,35.27c0,.08,0,.15,0,.22a22.4,22.4,0,0,0,20.2-12.88A22.39,22.39,0,0,0,18.79.78Z" transform="translate(0.25 0.68)"/><circle class="cls-11" cx="18.62" cy="39.21" r="16.24"/><path class="cls-8" d="M12.65,46.51A16.83,16.83,0,0,0,.19,45.77c0,.14,0,.28,0,.42-.35,10.12,0,20.24,0,30.36a8.77,8.77,0,0,1-.11,1.38A16.95,16.95,0,0,0,12.65,46.51Z" transform="translate(0.25 0.68)"/><circle class="cls-12" cx="39.61" cy="61.6" r="11.19"/><path class="cls-9" d="M62.19,143.81a147.64,147.64,0,0,0,18.21.61h.21c4.18,0,8.36-.38,12.54-.41h9.92a7.64,7.64,0,0,1,1.61.17c2.39-.06,4.78-.21,7.16-.2a25.51,25.51,0,0,0-50.31-.2A3.65,3.65,0,0,1,62.19,143.81Z" transform="translate(0.25 0.68)"/><circle class="cls-13" cx="18.81" cy="109.33" r="10.17"/><circle class="cls-14" cx="19.04" cy="81.85" r="13.93"/><circle class="cls-15" cx="56.83" cy="39.21" r="5.52"/><circle class="cls-16" cx="42.25" cy="90.05" r="13.1"/><circle class="cls-17" cx="74.39" cy="102.98" r="11.93"/><circle class="cls-12" cx="10.5" cy="134.03" r="5.39"/><circle class="cls-18" cx="50.61" cy="124.91" r="13.35"/><path class="cls-11" d="M186.43-.23h-.05a16.24,16.24,0,1,0,30.77.2C206.91,0,196.67-.22,186.43-.23Z" transform="translate(0.25 0.68)"/><circle class="cls-12" cx="216.74" cy="89.05" r="11.19"/><path class="cls-10" d="M253.37,123.32c-.17-10.67-.47-21.33-.49-32,0-.36,0-.7.06-1a22.36,22.36,0,0,0,.16,43.93C253.14,130.58,253.24,127,253.37,123.32Z" transform="translate(0.25 0.68)"/><circle class="cls-15" cx="211.07" cy="110.56" r="5.52"/><path class="cls-9" d="M163.48-.26q-.34,0-.72,0c-3.08,0-6.15-.1-9.23-.2-2.82,0-5.63,0-8.45.08a12.76,12.76,0,1,0,18.4.09Z" transform="translate(0.25 0.68)"/><path class="cls-14" d="M133.82-.23h-.21a9.94,9.94,0,0,0,4.56,4.33,10,10,0,0,0,13.12-4.5C145.46-.37,139.64-.24,133.82-.23Z" transform="translate(0.25 0.68)"/><circle class="cls-19" cx="193.46" cy="130.44" r="11.93"/><path class="cls-11" d="M277,104.57a11.13,11.13,0,0,0-5.13-1h0a5.93,5.93,0,0,1,.1.87c.08,5,.11,10,0,15,0,.12,0,.24,0,.37v5.73c0,.12,0,.23,0,.34a11.18,11.18,0,0,0,5-21.31Z" transform="translate(0.25 0.68)"/><path class="cls-20" d="M301.12,78A22.38,22.38,0,0,0,272,87.51a5.61,5.61,0,0,1,.06.59c0,4.81-.08,9.62-.09,14.42a5.4,5.4,0,0,1-.1,1,5.93,5.93,0,0,1,.1.87L272,109a22.37,22.37,0,1,0,29.09-31Z" transform="translate(0.25 0.68)"/><circle class="cls-21" cx="311.37" cy="111.94" r="7.75"/><circle class="cls-8" cx="308.84" cy="73.54" r="16.95"/><circle class="cls-9" cx="350.88" cy="74.92" r="36.62"/><circle class="cls-12" cx="372.12" cy="45.93" r="11.19"/><circle class="cls-22" cx="341.52" cy="34.73" r="7.75"/><circle class="cls-15" cx="307.82" cy="34.73" r="5.52"/><circle class="cls-10" cx="398.5" cy="56.58" r="22.38"/><circle class="cls-23" cx="412.44" cy="78.18" r="5.52"/><circle class="cls-11" cx="426.17" cy="40.25" r="16.24"/><circle class="cls-24" cx="431.24" cy="24.01" r="7.75"/><circle class="cls-9" cx="438.99" cy="51.45" r="5.52"/><circle class="cls-25" cx="437.52" cy="75.72" r="3.33"/><circle class="cls-8" cx="475.6" cy="42.48" r="36.62"/><circle class="cls-26" cx="509.44" cy="5.87" r="2.76"/><path class="cls-27" d="M524.16,79.74c0-3.83.26-7.67.29-11.5a3.55,3.55,0,0,1-.14-1.17c.2-3.25.09-6.5.07-9.76a16.76,16.76,0,0,0-5.22-3.81,17,17,0,1,0,5.07,27A5,5,0,0,1,524.16,79.74Z" transform="translate(0.25 0.68)"/><circle class="cls-28" cx="506.68" cy="24.01" r="7.75"/><circle class="cls-21" cx="399.07" cy="23.65" r="3.33"/><circle class="cls-29" cx="473.08" cy="94.13" r="3.33"/><circle class="cls-30" cx="305.64" cy="134.01" r="3.33"/><path class="cls-25" d="M274.59,63.85a5.54,5.54,0,0,0-2.47-.49v11a5.51,5.51,0,0,0,2.47-10.5Z" transform="translate(0.25 0.68)"/><text class="cls-4" transform="translate(444.51 137.76)">InkDesign20@gmail.com</text><circle class="cls-31" cx="506.66" cy="121.33" r="3.73"/><circle class="cls-31" cx="506.66" cy="121.33" r="2.42"/><circle class="cls-31" cx="510.64" cy="117.33" r="0.89"/><path class="cls-31" d="M501.32,115.21h10.73a.73.73,0,0,1,.73.73v10.73a.75.75,0,0,1-.75.75H501.35a.77.77,0,0,1-.77-.77V116A.74.74,0,0,1,501.32,115.21Z"/><rect class="cls-31" x="499.22" y="113.86" width="14.92" height="14.92" rx="0.74"/><circle class="cls-29" cx="421.22" cy="59.5" r="3.33"/><text class="cls-4" transform="translate(473.08 127.42)">Website</text></svg>